<?xml version="1.0" encoding="UTF-8"?>
<svg xmlns="http://www.w3.org/2000/svg" viewBox="-50 -10 810 940">
  <defs>
    <style>
      .cls-1 {
        fill: #e09921;
      }
    </style>
  </defs>
  <g>
    <path class="cls-1" d="M586.2,431.14L7.38,860.76c-12.26,9.1-8.59,28.33,6.15,32.28l88.93,23.83c16.37,4.39,33.84,1.71,48.14-7.38l405.2-257.47c3.86-2.45,6.66-6.27,7.84-10.69l51.05-190.82c4.47-16.7-14.63-29.67-28.51-19.37h.02Z" />
    <path class="cls-1" d="M694.33,25.88l-88.89-23.82c-16.37-4.39-33.83-1.71-48.14,7.38L152.06,266.91c-3.86,2.45-6.66,6.27-7.84,10.69l-51.05,190.82c-4.47,16.7,14.63,29.67,28.51,19.37L700.48,58.16c12.26-9.1,8.59-28.33-6.15-32.28Z" />
    <path class="cls-1" d="M315.32,582.16c5.3,1.42,10.95.38,15.39-2.82l230.85-166.41c12.48-9,8.91-28.45-5.95-32.43l-163.14-43.71c-5.29-1.42-10.95-.38-15.39,2.82l-230.89,166.4c-12.48,9-8.91,28.45,5.95,32.43l163.18,43.72h0Z" />
  </g>
</svg>
